<?xml version="1.0" standalone="no"?>
<!DOCTYPE svg PUBLIC "-//W3C//DTD SVG 20010904//EN"
 "http://www.w3.org/TR/2001/REC-SVG-20010904/DTD/svg10.dtd">
<svg version="1.0" xmlns="http://www.w3.org/2000/svg"
 width="1080.000000pt" height="1080.000000pt" viewBox="0 0 1080.000000 1080.000000"
 preserveAspectRatio="xMidYMid meet">
<metadata>
Created by potrace 1.11, written by Peter Selinger 2001-2013
</metadata>
<g transform="translate(0.000000,1080.000000) scale(0.100000,-0.100000)"
fill="#000000" stroke="none">
<path d="M1182 9184 c-259 -45 -463 -163 -612 -354 -19 -25 -37 -47 -41 -50
-9 -8 -93 -151 -111 -190 -76 -163 -134 -374 -164 -589 -3 -25 -8 -57 -10 -71
-18 -116 -26 -619 -12 -790 12 -150 38 -325 64 -440 125 -551 412 -868 864
-955 60 -12 332 -14 395 -4 276 45 472 156 638 363 159 197 249 449 312 876
28 185 28 783 0 970 -2 14 -6 48 -10 75 -23 193 -91 428 -171 590 -156 318
-405 510 -732 566 -94 16 -323 18 -410 3z m335 -574 c85 -30 142 -74 205 -159
110 -147 176 -381 204 -721 7 -78 6 -464 0 -530 -3 -30 -8 -80 -11 -110 -3
-30 -8 -67 -10 -81 -3 -14 -7 -41 -9 -60 -34 -262 -162 -507 -310 -594 -127
-74 -304 -72 -426 5 -176 112 -295 390 -325 760 -4 41 -8 93 -10 115 -6 53 -6
428 0 485 3 25 7 72 10 105 5 54 15 123 30 210 23 127 94 312 154 399 118 171
314 241 498 176z"/>
<path d="M1281 7866 c-19 -6 -55 -30 -80 -52 -81 -72 -122 -183 -116 -312 8
-198 135 -337 299 -331 77 3 129 23 175 69 184 176 140 527 -77 621 -49 21
-144 24 -201 5z"/>
<path d="M9308 9195 c-2 -2 -23 -6 -48 -9 -289 -39 -523 -188 -697 -446 -121
-179 -212 -451 -249 -740 -3 -25 -7 -55 -9 -68 -28 -170 -27 -705 0 -937 10
-84 34 -230 40 -247 2 -7 7 -24 9 -38 11 -58 34 -147 43 -170 4 -8 7 -17 8
-20 16 -63 88 -228 128 -294 76 -126 197 -257 296 -323 182 -121 361 -171 608
-171 199 0 352 34 498 109 376 192 583 600 642 1264 15 172 7 746 -12 844 -2
14 -7 47 -10 75 -3 28 -10 69 -15 91 -5 22 -12 56 -15 75 -13 76 -57 226 -95
325 -36 90 -127 259 -148 275 -5 3 -18 19 -30 37 -48 69 -171 179 -252 227
-111 65 -257 116 -375 131 -56 8 -311 15 -317 10z m222 -571 c45 -7 141 -56
181 -91 49 -43 108 -128 145 -208 34 -74 81 -222 90 -285 3 -19 7 -46 10 -60
2 -14 6 -34 8 -45 2 -11 7 -54 11 -95 4 -41 9 -93 11 -115 7 -62 7 -441 0
-525 -6 -71 -12 -124 -21 -180 -2 -14 -7 -45 -10 -70 -8 -58 -41 -196 -59
-247 -15 -44 -75 -172 -88 -188 -118 -152 -200 -203 -338 -212 -161 -11 -274
45 -391 195 -69 87 -150 330 -173 517 -3 22 -8 58 -11 80 -22 159 -22 526 0
740 12 119 42 270 72 360 10 28 18 52 18 55 1 3 9 22 18 44 9 21 17 40 17 43
0 15 95 147 131 182 98 95 229 131 379 105z"/>
<path d="M9350 7868 c-69 -20 -123 -71 -166 -157 -34 -69 -39 -97 -38 -201 3
-209 125 -344 306 -338 167 5 293 174 282 380 -6 131 -87 263 -188 309 -45 20
-138 24 -196 7z"/>
<path d="M4024 9075 c-27 -28 -74 -71 -104 -96 -30 -24 -59 -49 -65 -56 -20
-23 -313 -212 -430 -278 -134 -75 -289 -150 -382 -186 -35 -13 -63 -27 -63
-31 0 -3 38 -104 86 -225 136 -348 124 -323 148 -313 12 4 46 18 76 29 30 12
64 26 75 31 11 5 65 28 120 51 131 55 248 116 334 174 19 14 36 23 37 22 6 -6
7 -1837 1 -1843 -3 -3 -159 -6 -346 -6 -243 -1 -341 -4 -342 -12 -1 -6 -2
-129 -3 -273 l-1 -263 27 -1 c16 0 442 0 948 0 506 0 948 0 983 0 l63 1 0 274
0 274 -315 0 c-174 0 -323 1 -331 1 -13 1 -15 162 -15 1388 l0 1388 -226 0
-226 0 -49 -50z"/>
<path d="M6688 9055 c-111 -107 -135 -126 -269 -217 -235 -161 -487 -300 -676
-374 -40 -15 -73 -33 -73 -40 0 -7 43 -122 96 -256 53 -133 100 -253 105 -265
8 -22 10 -21 181 48 196 80 311 136 418 203 l75 46 3 -921 c1 -507 0 -924 -2
-927 -3 -2 -160 -4 -350 -4 l-346 -1 2 -274 3 -275 1003 0 c552 0 1006 3 1009
6 5 4 7 397 4 518 l-1 26 -327 -1 -328 -1 -5 1389 -5 1390 -222 0 -222 0 -73
-70z"/>
<path d="M1320 4993 c-69 -4 -189 -22 -250 -39 -107 -29 -255 -100 -330 -159
-64 -50 -181 -178 -228 -250 -29 -44 -57 -85 -62 -92 -6 -7 -10 -18 -10 -26 0
-7 -4 -17 -9 -23 -27 -27 -124 -309 -145 -421 -49 -266 -61 -400 -61 -723 0
-204 6 -342 19 -455 2 -16 7 -55 11 -85 19 -157 68 -356 125 -502 125 -325
347 -548 635 -641 264 -85 601 -66 840 48 193 93 355 257 460 465 15 30 31 63
37 73 35 68 105 311 127 442 39 229 45 321 46 650 0 255 -6 413 -19 480 -2 11
-7 47 -11 80 -4 32 -9 68 -11 80 -2 11 -7 34 -9 50 -11 61 -57 231 -85 312
-62 179 -178 364 -300 476 -64 60 -142 117 -158 117 -6 0 -12 4 -14 8 -5 13
-107 57 -193 84 -113 36 -284 57 -405 51z m200 -589 c120 -48 210 -140 277
-285 42 -89 84 -234 98 -332 3 -27 8 -59 11 -70 35 -184 35 -715 -1 -917 -3
-14 -7 -43 -10 -65 -13 -90 -65 -270 -96 -328 -8 -14 -24 -46 -37 -70 -72
-140 -217 -236 -365 -242 -241 -10 -415 161 -507 497 -22 81 -23 86 -35 156
-11 66 -24 183 -30 268 -6 73 -6 420 0 489 12 153 21 223 42 325 82 404 262
606 528 595 46 -1 99 -10 125 -21z"/>
<path d="M1310 3666 c-134 -35 -220 -162 -225 -330 -5 -185 81 -325 223 -361
226 -59 412 167 356 432 -40 193 -191 303 -354 259z"/>
<path d="M6749 4996 c-2 -2 -47 -6 -99 -10 -321 -21 -568 -160 -755 -427 -56
-78 -155 -270 -155 -300 0 -8 -4 -19 -9 -25 -22 -24 -86 -304 -110 -485 -30
-223 -33 -691 -7 -914 2 -16 7 -57 10 -90 6 -57 14 -105 38 -220 12 -60 47
-192 58 -220 4 -11 18 -47 30 -80 184 -498 597 -748 1144 -693 429 44 739 321
889 793 31 97 41 136 62 245 10 52 27 157 31 200 3 25 7 59 9 75 22 171 22
729 0 844 -3 17 -11 79 -20 151 -33 269 -146 579 -273 748 -187 249 -457 391
-759 401 -37 1 -70 4 -74 6 -3 3 -8 3 -10 1z m136 -589 c88 -33 148 -77 202
-150 75 -100 130 -226 159 -367 3 -14 9 -41 14 -60 5 -19 11 -55 14 -80 3 -25
8 -61 11 -80 25 -177 25 -667 0 -818 -3 -15 -7 -40 -9 -57 -15 -106 -30 -175
-53 -248 -15 -45 -27 -84 -27 -87 -2 -14 -63 -130 -87 -165 -92 -135 -218
-204 -369 -200 -210 6 -363 149 -455 425 -26 78 -60 233 -69 310 -3 25 -8 79
-13 120 -18 170 -5 668 21 796 2 12 7 39 10 60 11 67 37 156 72 251 93 250
252 377 459 368 44 -2 98 -10 120 -18z"/>
<path d="M6672 3664 c-76 -23 -125 -66 -169 -149 -89 -168 -44 -412 92 -504
104 -70 257 -57 343 28 75 76 110 170 107 287 -3 94 -7 112 -39 179 -66 133
-203 199 -334 159z"/>
<path d="M9331 4988 c-106 -8 -231 -37 -321 -74 -215 -87 -414 -285 -533 -531
-66 -136 -141 -405 -162 -582 -4 -30 -8 -61 -10 -70 -19 -100 -28 -678 -12
-821 4 -36 9 -83 12 -105 2 -22 7 -62 10 -90 11 -94 54 -290 89 -398 104 -326
291 -564 539 -686 148 -73 274 -100 476 -105 500 -11 867 257 1037 757 23 68
52 168 60 212 2 11 8 40 14 65 11 49 35 215 47 325 10 93 10 650 0 745 -14
129 -17 152 -33 250 -70 426 -224 728 -469 917 -146 113 -361 186 -562 192
-43 1 -80 3 -83 5 -3 1 -47 -1 -99 -6z m249 -583 c240 -98 362 -364 406 -885
6 -70 6 -437 -1 -520 -18 -241 -49 -399 -110 -550 -97 -243 -249 -361 -455
-355 -105 4 -233 62 -290 132 -175 215 -251 527 -252 1033 0 153 13 377 27
447 2 12 7 43 10 70 10 73 53 225 84 301 75 181 191 299 331 338 63 17 195 11
250 -11z"/>
<path d="M9375 3670 c-95 -21 -180 -109 -217 -225 -14 -44 -18 -174 -7 -226
22 -99 86 -187 167 -228 51 -26 142 -32 204 -15 94 28 184 141 205 259 11 60
7 157 -8 205 -31 96 -105 187 -177 217 -38 16 -122 22 -167 13z"/>
<path d="M3991 4839 c-165 -159 -416 -326 -714 -477 -129 -65 -167 -83 -255
-118 -47 -18 -47 -15 -14 -99 114 -297 176 -451 182 -458 17 -19 438 164 579
252 46 28 85 50 87 49 3 -3 7 -1740 5 -1820 l-1 -28 -348 0 -347 0 0 -275 0
-275 1007 0 c555 0 1009 3 1009 7 1 5 3 128 4 275 l2 268 -331 2 -331 3 0
1385 0 1385 -225 2 -225 3 -84 -81z"/>
</g>
</svg>
